<svg version="1.1"
	 xmlns="http://www.w3.org/2000/svg" xmlns:xlink="http://www.w3.org/1999/xlink" xmlns:a="http://ns.adobe.com/AdobeSVGViewerExtensions/3.0/"
	 x="0px" y="0px" width="38.6px" height="62.5px" viewBox="0 0 38.6 62.5" enable-background="new 0 0 38.6 62.5"
	 xml:space="preserve">
<defs>
</defs>
<g>
	<path fill="#505050" d="M19.1,0C19.1,0,19.1,0,19.1,0C19.1,0,19.1,0,19.1,0z"/>
	<path fill="#505050" d="M19.1,0c0,0,0.1,0,0.1,0v0C19.2,0,19.2,0,19.1,0z"/>
	<path fill="#505050" d="M32.4,4.7c0,0-4.8-4.5-13-4.7C11.2,0.2,7,4.7,7,4.7C-1.5,12,0.1,22.5,0.1,22.5S1.9,37.7,1.9,42
		c0.3,5.5,0.3,6.8,5.4,12.9c6.1,6.8,11.7,7.7,11.7,7.7h1.4c0,0,5.6-0.9,11.7-7.7c5.1-6.1,5.1-7.3,5.4-12.9c0-2.1,0-14.8,0.7-19.5
		C38.2,22.5,40.7,11.8,32.4,4.7z M31.8,43.7c-3.3-1.9-11-8-11.4-5.2c0,1.8-0.2,2.7,1.7,3c1.9,0.3,7.9,1.9,7.8,4.7
		c-0.1,2.4-1.8,5.5-5,5.3c-1.7-0.1-3.4-0.6-3.4-1.7c0-1.1,1.1-3.9-1.1-3.7c0,0-1.2,0-1.4,0c-1.9-0.1-1.1,2.6-1.1,3.7
		c0,1.1-1.7,1.5-3.4,1.7c-3.4,0.4-4.9-2.8-5-5.3c-0.1-2.8,5.9-4.4,7.8-4.7c1.9-0.3,1.7-1.2,1.7-3c-0.5-2.7-8.1,3.3-11.4,5.2
		c-2.8,2.2-3.2-9.8-3.2-9.8s-1.3-6.6-0.5-10.6c1.8-2.2,4.5-7.6,5-10.2c3.2,3.4,18,4.1,20.2,5.3c0,0-0.7-1.1-0.7-1.5
		c0.7,1,1.5,0.6,3.2,1.3c-0.7-0.9-1.1-1.1-1.1-1.7c0.6,0.6,1.4,1,2.3,1.2c0,0,0.1,0,0.1,0c0,0.1,0,0.2,0,0.3c0,0.1,0,0.2,0.1,0.4
		l0,0c0.2,1.7,1.2,3.3,2,4.3c0.8,4,0.3,11.1,0.3,11.1S34.6,45.9,31.8,43.7z"/>
	<path fill="#505050" d="M19.6,0c0,0-0.2,0-0.3,0v0c0.1,0,0.1,0,0.2,0C19.5,0,19.5,0,19.6,0L19.6,0L19.6,0z"/>
</g>
</svg>
